<?xml version="1.0" encoding="UTF-8"?>
<svg id="Ebene_1" xmlns="http://www.w3.org/2000/svg" version="1.1" viewBox="0 0 595.3 841.9">
  <!-- Generator: Adobe Illustrator 29.2.0, SVG Export Plug-In . SVG Version: 2.1.0 Build 108)  -->
  <defs>
    <style>
      .st0 {
        fill: #ee7f00;
      }

      .st1 {
        fill: #cc0824;
      }

      .st2 {
        fill: #bd1225;
      }

      .st3 {
        fill: #4b4b4d;
      }
    </style>
  </defs>
  <path class="st2" d="M285.1,284.7v-1.7c0-1,.8-1.7,1.8-1.7h1.7c1,0,1.8.8,1.8,1.7v1.7c0,1-.8,1.7-1.8,1.7h-1.7c-1,0-1.8-.8-1.8-1.7h0Z"/>
  <path class="st2" d="M308.4,266.6h-1.7c-1,0-1.7-.8-1.7-1.8v-1.7c0-1,.8-1.8,1.7-1.8h1.7c1,0,1.7.8,1.7,1.8v1.7c0,1-.8,1.8-1.7,1.8h0Z"/>
  <path class="st2" d="M295,274.8v-1.7c0-1,.8-1.7,1.8-1.7h1.7c1,0,1.8.8,1.8,1.7v1.7c0,1-.8,1.7-1.8,1.7h-1.7c-1,0-1.8-.8-1.8-1.7h0Z"/>
  <path class="st1" d="M290.3,243.3v1.7c0,1-.8,1.7-1.8,1.7h-1.7c-1,0-1.8-.8-1.8-1.7v-1.7c0-1,.8-1.7,1.8-1.7h1.7c1,0,1.8.8,1.8,1.7h0Z"/>
  <path class="st0" d="M267,261.4h1.7c1,0,1.7.8,1.7,1.8v1.7c0,1-.8,1.8-1.7,1.8h-1.7c-1,0-1.7-.8-1.7-1.8v-1.7c0-1,.8-1.8,1.7-1.8h0Z"/>
  <path class="st0" d="M280.4,253.2v1.7c0,1-.8,1.7-1.8,1.7h-1.7c-1,0-1.8-.8-1.8-1.7v-1.7c0-1,.8-1.7,1.8-1.7h1.7c1,0,1.8.8,1.8,1.7h0Z"/>
  <path class="st0" d="M285.1,284.7v-1.7c0-1,.8-1.7,1.8-1.7h1.7c1,0,1.8.8,1.8,1.7v1.7c0,1-.8,1.7-1.8,1.7h-1.7c-1,0-1.8-.8-1.8-1.7h0Z"/>
  <path class="st0" d="M295,274.8v-1.7c0-1,.8-1.7,1.8-1.7h1.7c1,0,1.8.8,1.8,1.7v1.7c0,1-.8,1.7-1.8,1.7h-1.7c-1,0-1.8-.8-1.8-1.7h0Z"/>
  <path class="st0" d="M308.4,266.6h-1.7c-1,0-1.7-.8-1.7-1.8v-1.7c0-1,.8-1.8,1.7-1.8h1.7c1,0,1.7.8,1.7,1.8v1.7c0,1-.8,1.8-1.7,1.8h0Z"/>
  <path class="st2" d="M284.5,275v-2.1c0-1.2,1-2.2,2.2-2.2h2.2c1.2,0,2.2,1,2.2,2.2v2.1c0,1.2-1,2.2-2.2,2.2h-2.2c-1.2,0-2.2-1-2.2-2.2h0Z"/>
  <path class="st2" d="M285.7,294.5v-1.3c0-.7.6-1.3,1.3-1.3h1.3c.7,0,1.3.6,1.3,1.3v1.3c0,.7-.6,1.3-1.3,1.3h-1.3c-.7,0-1.3-.6-1.3-1.3h0Z"/>
  <path class="st2" d="M298.7,267.2h-2.1c-1.2,0-2.2-1-2.2-2.2v-2.2c0-1.2,1-2.2,2.2-2.2h2.1c1.2,0,2.2,1,2.2,2.2v2.2c0,1.2-1,2.2-2.2,2.2h0Z"/>
  <path class="st2" d="M318.2,266h-1.3c-.7,0-1.3-.6-1.3-1.3v-1.3c0-.7.6-1.3,1.3-1.3h1.3c.7,0,1.3.6,1.3,1.3v1.3c0,.7-.6,1.3-1.3,1.3h0Z"/>
  <path class="st2" d="M305.6,274.6v-1.3c0-.7.6-1.3,1.3-1.3h1.3c.7,0,1.3.6,1.3,1.3v1.3c0,.7-.6,1.3-1.3,1.3h-1.3c-.7,0-1.3-.6-1.3-1.3h0Z"/>
  <path class="st2" d="M295.6,284.5v-1.3c0-.7.6-1.3,1.3-1.3h1.3c.7,0,1.3.6,1.3,1.3v1.3c0,.7-.6,1.3-1.3,1.3h-1.3c-.7,0-1.3-.6-1.3-1.3h0Z"/>
  <path class="st1" d="M284.5,275v-2.1c0-1.2,1-2.2,2.2-2.2h2.2c1.2,0,2.2,1,2.2,2.2v2.1c0,1.2-1,2.2-2.2,2.2h-2.2c-1.2,0-2.2-1-2.2-2.2h0Z"/>
  <path class="st1" d="M285.7,294.5v-1.3c0-.7.6-1.3,1.3-1.3h1.3c.7,0,1.3.6,1.3,1.3v1.3c0,.7-.6,1.3-1.3,1.3h-1.3c-.7,0-1.3-.6-1.3-1.3h0Z"/>
  <path class="st1" d="M298.7,267.2h-2.1c-1.2,0-2.2-1-2.2-2.2v-2.2c0-1.2,1-2.2,2.2-2.2h2.1c1.2,0,2.2,1,2.2,2.2v2.2c0,1.2-1,2.2-2.2,2.2h0Z"/>
  <path class="st1" d="M318.2,266h-1.3c-.7,0-1.3-.6-1.3-1.3v-1.3c0-.7.6-1.3,1.3-1.3h1.3c.7,0,1.3.6,1.3,1.3v1.3c0,.7-.6,1.3-1.3,1.3h0Z"/>
  <path class="st1" d="M305.6,274.6v-1.3c0-.7.6-1.3,1.3-1.3h1.3c.7,0,1.3.6,1.3,1.3v1.3c0,.7-.6,1.3-1.3,1.3h-1.3c-.7,0-1.3-.6-1.3-1.3h0Z"/>
  <path class="st0" d="M295.6,284.5v-1.3c0-.7.6-1.3,1.3-1.3h1.3c.7,0,1.3.6,1.3,1.3v1.3c0,.7-.6,1.3-1.3,1.3h-1.3c-.7,0-1.3-.6-1.3-1.3h0Z"/>
  <path class="st1" d="M290.9,253v2.1c0,1.2-1,2.2-2.2,2.2h-2.2c-1.2,0-2.2-1-2.2-2.2v-2.1c0-1.2,1-2.2,2.2-2.2h2.2c1.2,0,2.2,1,2.2,2.2h0Z"/>
  <path class="st0" d="M289.7,233.5v1.3c0,.7-.6,1.3-1.3,1.3h-1.3c-.7,0-1.3-.6-1.3-1.3v-1.3c0-.7.6-1.3,1.3-1.3h1.3c.7,0,1.3.6,1.3,1.3h0Z"/>
  <path class="st1" d="M276.7,260.8h2.1c1.2,0,2.2,1,2.2,2.2v2.2c0,1.2-1,2.2-2.2,2.2h-2.1c-1.2,0-2.2-1-2.2-2.2v-2.2c0-1.2,1-2.2,2.2-2.2h0Z"/>
  <path class="st1" d="M257.2,262h1.3c.7,0,1.3.6,1.3,1.3v1.3c0,.7-.6,1.3-1.3,1.3h-1.3c-.7,0-1.3-.6-1.3-1.3v-1.3c0-.7.6-1.3,1.3-1.3h0Z"/>
  <path class="st1" d="M269.8,253.4v1.3c0,.7-.6,1.3-1.3,1.3h-1.3c-.7,0-1.3-.6-1.3-1.3v-1.3c0-.7.6-1.3,1.3-1.3h1.3c.7,0,1.3.6,1.3,1.3h0Z"/>
  <path class="st0" d="M279.8,243.5v1.3c0,.7-.6,1.3-1.3,1.3h-1.3c-.7,0-1.3-.6-1.3-1.3v-1.3c0-.7.6-1.3,1.3-1.3h1.3c.7,0,1.3.6,1.3,1.3h0Z"/>
  <path class="st2" d="M298.1,295.2h-.9c-.5,0-.9-.4-.9-.9v-.9c0-.5.4-.9.9-.9h.9c.5,0,.9.4.9.9v.9c0,.5-.4.9-.9.9h0Z"/>
  <path class="st2" d="M308,285.2h-.9c-.5,0-.9-.4-.9-.9v-.9c0-.5.4-.9.9-.9h.9c.5,0,.9.4.9.9v.9c0,.5-.4.9-.9.9h0Z"/>
  <path class="st2" d="M318,275.3h-.9c-.5,0-.9-.4-.9-.9v-.9c0-.5.4-.9.9-.9h.9c.5,0,.9.4.9.9v.9c0,.5-.4.9-.9.9h0Z"/>
  <path class="st2" d="M328.8,263.5v.9c0,.5-.4.9-.9.9h-.9c-.5,0-.9-.4-.9-.9v-.9c0-.5.4-.9.9-.9h.9c.5,0,.9.4.9.9h0Z"/>
  <path class="st2" d="M289,267.9h-2.6c-1.4,0-2.6-1.2-2.6-2.6v-2.6c0-1.4,1.1-2.6,2.6-2.6h2.6c1.4,0,2.6,1.2,2.6,2.6v2.6c0,1.4-1.1,2.6-2.6,2.6h0Z"/>
  <path class="st1" d="M298.1,295.2h-.9c-.5,0-.9-.4-.9-.9v-.9c0-.5.4-.9.9-.9h.9c.5,0,.9.4.9.9v.9c0,.5-.4.9-.9.9h0Z"/>
  <path class="st0" d="M308,285.2h-.9c-.5,0-.9-.4-.9-.9v-.9c0-.5.4-.9.9-.9h.9c.5,0,.9.4.9.9v.9c0,.5-.4.9-.9.9h0Z"/>
  <path class="st1" d="M318,275.3h-.9c-.5,0-.9-.4-.9-.9v-.9c0-.5.4-.9.9-.9h.9c.5,0,.9.4.9.9v.9c0,.5-.4.9-.9.9h0Z"/>
  <path class="st1" d="M328.8,263.5v.9c0,.5-.4.9-.9.9h-.9c-.5,0-.9-.4-.9-.9v-.9c0-.5.4-.9.9-.9h.9c.5,0,.9.4.9.9h0Z"/>
  <path class="st1" d="M289,267.9h-2.6c-1.4,0-2.6-1.2-2.6-2.6v-2.6c0-1.4,1.1-2.6,2.6-2.6h2.6c1.4,0,2.6,1.2,2.6,2.6v2.6c0,1.4-1.1,2.6-2.6,2.6h0Z"/>
  <path class="st0" d="M277.3,232.8h.9c.5,0,.9.4.9.9v.9c0,.5-.4.9-.9.9h-.9c-.5,0-.9-.4-.9-.9v-.9c0-.5.4-.9.9-.9h0Z"/>
  <path class="st0" d="M267.4,242.8h.9c.5,0,.9.4.9.9v.9c0,.5-.4.9-.9.9h-.9c-.5,0-.9-.4-.9-.9v-.9c0-.5.4-.9.9-.9h0Z"/>
  <path class="st1" d="M257.4,252.7h.9c.5,0,.9.4.9.9v.9c0,.5-.4.9-.9.9h-.9c-.5,0-.9-.4-.9-.9v-.9c0-.5.4-.9.9-.9h0Z"/>
  <path class="st1" d="M246.6,264.5v-.9c0-.5.4-.9.9-.9h.9c.5,0,.9.4.9.9v.9c0,.5-.4.9-.9.9h-.9c-.5,0-.9-.4-.9-.9h0Z"/>
  <path class="st2" d="M288.2,305.1h-.9c-.5,0-.9-.4-.9-.9v-.9c0-.5.4-.9.9-.9h.9c.5,0,.9.4.9.9v.9c0,.5-.4.9-.9.9h0Z"/>
  <path class="st1" d="M288.2,305.1h-.9c-.5,0-.9-.4-.9-.9v-.9c0-.5.4-.9.9-.9h.9c.5,0,.9.4.9.9v.9c0,.5-.4.9-.9.9h0Z"/>
  <path class="st1" d="M287.2,222.9h.9c.5,0,.9.4.9.9v.9c0,.5-.4.9-.9.9h-.9c-.5,0-.9-.4-.9-.9v-.9c0-.5.4-.9.9-.9h0Z"/>
  <g>
    <path class="st3" d="M217,271h9.3v2l-6.5,11.3h6.6v2.1h-9.6v-2l6.5-11.3h-6.3v-2.1Z"/>
    <path class="st3" d="M229.1,286.5v-15.5h4.8c3.5,0,4.7,1.5,4.7,3.8s-1.5,3.3-3,3.6h0c2.4.3,3.5,1.6,3.5,3.7,0,3.1-2.1,4.4-5.5,4.4h-4.5ZM232.8,277.6c1.6,0,3.1-.5,3.1-2.5s-.7-2-2.5-2h-1.7v4.5h1.1ZM233.3,284.4c2,0,3.2-.5,3.2-2.4s-1-2.4-2.8-2.4h-2v4.8h1.6Z"/>
    <path class="st3" d="M249.9,286.5l-4.2-13.7h0v13.7h-1.4v-15.5h2.3l4,13.6h0l4-13.6h2.2v15.5h-1.4v-13.6h0l-4.2,13.6h-1.4Z"/>
    <path class="st3" d="M267.5,279.1h-5.4v6.1h6.6v1.2h-8.1v-15.5h7.6v1.2h-6.1v5.7h5.4v1.2Z"/>
    <path class="st3" d="M271.3,286.5v-15.5h2.2c5.8,0,7.4,2.3,7.4,7.7s-1.8,7.8-7.4,7.8h-2.2ZM273.8,285.3c4.2,0,5.6-1.7,5.6-6.6s-1.1-6.4-5.5-6.4h-1.1v13h1Z"/>
  </g>
  <g>
    <g>
      <path class="st3" d="M295.4,247.3h.6v.5h-1.8v-.5h.5v-4.5h-.5v-.5h1.8v.5h-.6v4.5Z"/>
      <path class="st3" d="M300,247.8h-.7v-2.4c0-.7-.2-1.1-.8-1.1-.8,0-.9.6-.9,1.2v2.3h-.7v-3.9h.6v.6h0c.1-.3.5-.7,1.1-.7s1.3.5,1.3,1.5v2.5Z"/>
      <path class="st3" d="M300.7,243.9h.5v-.4c0-.9.3-1.4,1.2-1.4s.5,0,.6,0v.5c-.2,0-.4,0-.6,0-.4,0-.6.3-.6.8v.4h.9v.5h-.9v3.4h-.7v-3.4h-.5v-.5Z"/>
      <path class="st3" d="M303.1,245.8c0-1.4.7-2.1,1.7-2.1s1.6.7,1.6,2-.6,2.1-1.7,2.1-1.6-.7-1.6-2.1ZM305.7,245.8c0-.9-.2-1.5-.9-1.5s-1,.6-1,1.5.2,1.5.9,1.5.9-.7.9-1.6Z"/>
      <path class="st3" d="M309.2,245.2c0-.7,0-.8-.4-.8-.6,0-.8.6-.8,1.3v2.1h-.7v-3.9h.6v.6h0c.1-.3.5-.7,1-.7s1,.4.9,1.4h-.6Z"/>
      <path class="st3" d="M313.3,244.6c.2-.5.6-.8,1.2-.8s1.2.5,1.2,1.6v2.5h-.7v-2.4c0-.8-.3-1.1-.7-1.1s-.9.4-.9,1.2v2.3h-.7v-2.4c0-.8-.3-1.1-.7-1.1s-.9.4-.9,1.2v2.3h-.7v-3.9h.6v.6h0c.2-.3.5-.7,1.1-.7s1,.4,1.1.8Z"/>
      <path class="st3" d="M319.9,247.8c-.2,0-.3,0-.4,0-.4,0-.6-.2-.6-.5-.2.4-.6.6-1.1.6-.8,0-1.2-.5-1.2-1.1,0-1,.9-1.2,2.3-1.3v-.3c0-.8-.3-1-.8-1s-.7.3-.7.6,0,.2,0,.3h-.6c0,0,0-.2,0-.3,0-.7.4-1.2,1.4-1.2s1.4.9,1.4,1.9v1.5c0,.2,0,.3.2.3s.1,0,.2,0v.4ZM318.8,246c-1.3,0-1.5.3-1.5.7s.2.6.7.6.9-.4.9-.9v-.5Z"/>
      <path class="st3" d="M320.2,243.9h.5v-.8l.7-.2v1.1h.9v.5h-.9v2.2c0,.5.1.8.5.8s.3,0,.5,0v.5c0,0-.3.1-.6.1-.8,0-1.1-.5-1.1-1.3v-2.3h-.5v-.5Z"/>
      <path class="st3" d="M323.1,242.2h.7v.8h-.7v-.8ZM323.1,243.9h.7v3.9h-.7v-3.9Z"/>
      <path class="st3" d="M324.7,245.8c0-1.4.7-2.1,1.7-2.1s1.6.7,1.6,2-.6,2.1-1.7,2.1-1.6-.7-1.6-2.1ZM327.3,245.8c0-.9-.2-1.5-.9-1.5s-1,.6-1,1.5.2,1.5.9,1.5.9-.7.9-1.6Z"/>
      <path class="st3" d="M332,247.8h-.7v-2.4c0-.7-.2-1.1-.8-1.1-.8,0-.9.6-.9,1.2v2.3h-.7v-3.9h.6v.6h0c.1-.3.5-.7,1.1-.7s1.3.5,1.3,1.5v2.5Z"/>
      <path class="st3" d="M337.5,245.9h.7c0,1.4-.8,2-1.8,2s-2-.9-2-2.9.8-3,2.2-3,1.7.8,1.7,2h-.7c0-1.1-.4-1.4-1.1-1.4s-1.3.7-1.3,2.3.4,2.3,1.2,2.3,1-.5,1.1-1.4Z"/>
      <path class="st3" d="M342,246.6c-.1,1.1-.8,1.4-1.5,1.4-1.2,0-1.6-.9-1.6-2s.6-2.1,1.7-2.1,1.4.6,1.4,1.8,0,.3,0,.5h-2.4c0,.8.2,1.4.9,1.4s.8-.3.9-.9h.6ZM341.4,245.5c0-.7-.2-1.2-.8-1.2s-.9.6-.9,1.2h1.8Z"/>
      <path class="st3" d="M346,247.8h-.7v-2.4c0-.7-.2-1.1-.8-1.1-.8,0-.9.6-.9,1.2v2.3h-.7v-3.9h.6v.6h0c.1-.3.5-.7,1.1-.7s1.3.5,1.3,1.5v2.5Z"/>
      <path class="st3" d="M346.7,243.9h.5v-.8l.7-.2v1.1h.9v.5h-.9v2.2c0,.5.1.8.5.8s.3,0,.5,0v.5c0,0-.3.1-.6.1-.8,0-1.1-.5-1.1-1.3v-2.3h-.5v-.5Z"/>
      <path class="st3" d="M355.9,246.5c-.1,1.1-.8,1.4-1.5,1.4-1.2,0-1.6-.9-1.6-2s.6-2.1,1.7-2.1,1.4.6,1.4,1.8,0,.3,0,.5h-2.4c0,.8.2,1.4.9,1.4s.8-.3.9-.9h.6ZM355.3,245.5c0-.7-.2-1.2-.8-1.2s-.9.6-.9,1.2h1.8Z"/>
      <path class="st3" d="M351.6,245.2c0-.7,0-.8-.4-.8-.6,0-.8.6-.8,1.3v2.1h-.7v-3.9h.6v.6h0c.1-.3.5-.7,1-.7s1,.4.9,1.4h-.6Z"/>
    </g>
    <path class="st3" d="M294.2,253.1h.5v-.4c0-.9.3-1.4,1.2-1.4s.5,0,.6,0v.5c-.2,0-.4,0-.6,0-.4,0-.6.3-.6.8v.4h.9v.5h-.9v3.4h-.7v-3.4h-.5v-.5Z"/>
    <path class="st3" d="M296.5,255.1c0-1.4.7-2.1,1.7-2.1s1.6.7,1.6,2-.6,2.1-1.7,2.1-1.6-.7-1.6-2.1ZM299.1,255c0-.9-.2-1.5-.9-1.5s-1,.6-1,1.5.2,1.5.9,1.5.9-.7.9-1.6Z"/>
    <path class="st3" d="M302.6,254.4c0-.7,0-.8-.4-.8-.6,0-.8.6-.8,1.3v2.1h-.7v-3.9h.6v.6h0c.1-.3.5-.7,1-.7s1,.4.9,1.4h-.6Z"/>
    <path class="st3" d="M306.3,256.4h2.1v.6h-2.8v-5.6h.7v5Z"/>
    <path class="st3" d="M309.2,251.4h.7v.8h-.7v-.8ZM309.2,253.1h.7v3.9h-.7v-3.9Z"/>
    <path class="st3" d="M310.6,253.1h.5v-.4c0-.9.3-1.4,1.2-1.4s.5,0,.6,0v.5c-.2,0-.4,0-.6,0-.4,0-.6.3-.6.8v.4h.9v.5h-.9v3.4h-.7v-3.4h-.5v-.5Z"/>
    <path class="st3" d="M316,255.8c-.1,1.1-.8,1.4-1.5,1.4-1.2,0-1.6-.9-1.6-2s.6-2.1,1.7-2.1,1.4.6,1.4,1.8,0,.3,0,.5h-2.4c0,.8.2,1.4.9,1.4s.8-.3.9-.9h.6ZM315.4,254.7c0-.7-.2-1.2-.8-1.2s-.9.6-.9,1.2h1.8Z"/>
    <path class="st3" d="M321,253.1c0-.8-.4-1.2-1-1.2s-1,.3-1,.9.4.8,1,1c.8.2,1.8.4,1.8,1.7s-.7,1.7-1.8,1.7-1.8-.5-1.9-1.8h.7c0,.7.3,1.1,1.2,1.1s1-.4,1-1-.5-.9-1.1-1.1c-.8-.2-1.7-.4-1.7-1.6s.7-1.6,1.7-1.6,1.6.6,1.7,1.7h-.7Z"/>
    <path class="st3" d="M325,254.5c0-.6-.3-.9-.8-.9s-1,.5-1,1.6.3,1.5,1,1.5.8-.3.8-.9h.6c-.1,1.1-.7,1.4-1.5,1.4-1.2,0-1.6-.9-1.6-2s.6-2.1,1.7-2.1,1.4.7,1.4,1.4h-.6Z"/>
    <path class="st3" d="M326.4,251.4h.7v.8h-.7v-.8ZM326.4,253.1h.7v3.9h-.7v-3.9Z"/>
    <path class="st3" d="M331.1,255.8c-.1,1.1-.8,1.4-1.5,1.4-1.2,0-1.6-.9-1.6-2s.6-2.1,1.7-2.1,1.4.6,1.4,1.8,0,.3,0,.5h-2.4c0,.8.2,1.4.9,1.4s.8-.3.9-.9h.6ZM330.5,254.7c0-.7-.2-1.2-.8-1.2s-.9.6-.9,1.2h1.8Z"/>
    <path class="st3" d="M335.1,257h-.7v-2.4c0-.7-.2-1.1-.8-1.1-.8,0-.9.6-.9,1.2v2.3h-.7v-3.9h.6v.6h0c.1-.3.5-.7,1.1-.7s1.3.5,1.3,1.5v2.5Z"/>
    <path class="st3" d="M338.5,254.5c0-.6-.3-.9-.8-.9s-1,.5-1,1.6.3,1.5,1,1.5.8-.3.8-.9h.6c0,1.1-.7,1.4-1.5,1.4-1.2,0-1.6-.9-1.6-2s.6-2.1,1.7-2.1,1.4.7,1.4,1.4h-.6Z"/>
    <path class="st3" d="M342.8,255.8c-.1,1.1-.8,1.4-1.5,1.4-1.2,0-1.6-.9-1.6-2s.6-2.1,1.7-2.1,1.4.6,1.4,1.8,0,.3,0,.5h-2.4c0,.8.2,1.4.9,1.4s.8-.3.9-.9h.6ZM342.2,254.7c0-.7-.2-1.2-.8-1.2s-.9.6-.9,1.2h1.8Z"/>
    <path class="st3" d="M345.7,254.3c0-.5-.2-.8-.8-.8s-.7.2-.7.6.4.5.9.7c.6.1,1.3.3,1.3,1.2s-.6,1.2-1.5,1.2-1.3-.4-1.4-1.2h.6c0,.4.2.7.8.7s.8-.3.8-.6-.4-.6-.8-.7c-.6-.2-1.3-.3-1.3-1.1s.6-1.2,1.4-1.2,1.3.4,1.3,1.2h-.6Z"/>
  </g>
</svg>